<svg width="18" height="22" viewBox="0 0 18 22" fill="none" xmlns="http://www.w3.org/2000/svg">
<path d="M11.6437 9.14834C10.7508 9.14834 9.89452 8.79365 9.26317 8.1623C8.63182 7.53095 8.27714 6.67466 8.27714 5.7818V1.29308H3.78842C3.19317 1.29308 2.62231 1.52954 2.20141 1.95044C1.78051 2.37134 1.54406 2.9422 1.54406 3.53744V18.1258C1.54406 18.721 1.78051 19.2919 2.20141 19.7128C2.62231 20.1337 3.19317 20.3701 3.78842 20.3701H13.888C14.4833 20.3701 15.0541 20.1337 15.475 19.7128C15.8959 19.2919 16.1324 18.721 16.1324 18.1258V9.14834H11.6437ZM9.39932 5.7818C9.39932 6.37704 9.63578 6.9479 10.0567 7.3688C10.4776 7.7897 11.0484 8.02616 11.6437 8.02616H15.6723L9.39932 1.75317V5.7818ZM3.78842 0.170898H9.39932L17.2546 8.02616V18.1258C17.2546 19.0186 16.8999 19.8749 16.2685 20.5063C15.6372 21.1376 14.7809 21.4923 13.888 21.4923H3.78842C2.89555 21.4923 2.03926 21.1376 1.40791 20.5063C0.776563 19.8749 0.421875 19.0186 0.421875 18.1258V3.53744C0.421875 2.64458 0.776563 1.78828 1.40791 1.15694C2.03926 0.525587 2.89555 0.170898 3.78842 0.170898Z" fill="black"/>
</svg>
